<svg xmlns="http://www.w3.org/2000/svg" xmlns:xlink="http://www.w3.org/1999/xlink" viewBox="0 0 92.94 104.1"><defs><linearGradient id="未命名的渐变_2" x1="53.09" y1="68.27" x2="90.27" y2="68.27" gradientUnits="userSpaceOnUse"><stop offset="0" stop-color="#0074e1" stop-opacity="0"/><stop offset="0.19" stop-color="#0074e1" stop-opacity="0.23"/><stop offset="0.48" stop-color="#0074e1" stop-opacity="0.56"/><stop offset="0.72" stop-color="#0074e1" stop-opacity="0.8"/><stop offset="0.9" stop-color="#0074e1" stop-opacity="0.94"/><stop offset="1" stop-color="#0074e1"/></linearGradient></defs><title>资源 12</title><g id="图层_2" data-name="图层 2"><g id="图层_1-2" data-name="图层 1"><polygon points="53.57 57.41 90.27 36.16 89.77 80.29 53.09 100.37 53.57 57.41" style="fill:url(#未命名的渐变_2)"/><path d="M92.42,32.59a1,1,0,0,0-1,0L51.13,55.47a2,2,0,0,0-1,1.75v45.85a1,1,0,0,0,.52.89,1,1,0,0,0,.52.14,1,1,0,0,0,.51-.14L91.93,80.78a2,2,0,0,0,1-1.74V33.49A1,1,0,0,0,92.42,32.59ZM84.79,46V75.49L58.54,90.6V60.91Z"/><path d="M85.09,22,47.48.27a2,2,0,0,0-2,0L1,25.94a2,2,0,0,0-1,1.74V79a2,2,0,0,0,1,1.73L37.77,102a1,1,0,0,0,.52.14,1,1,0,0,0,.52-.14,1,1,0,0,0,.52-.89V93.48a1.6,1.6,0,0,0-.79-1.38L9.33,75.24a.76.76,0,0,1-.39-.66V32.13a.77.77,0,0,1,.39-.67L46.09,10.24a.76.76,0,0,1,.77,0l30,17.32a1.61,1.61,0,0,0,1.59,0l6.64-3.78a1,1,0,0,0,.52-.9A1,1,0,0,0,85.09,22Z"/></g></g></svg>