<svg xmlns="http://www.w3.org/2000/svg" xmlns:xlink="http://www.w3.org/1999/xlink" viewBox="0 0 66.19 92.33"><defs><linearGradient id="未命名的渐变_2" x1="36.8" y1="42.04" x2="58.3" y2="42.04" gradientUnits="userSpaceOnUse"><stop offset="0" stop-color="#0074e1" stop-opacity="0"/><stop offset="0.19" stop-color="#0074e1" stop-opacity="0.23"/><stop offset="0.48" stop-color="#0074e1" stop-opacity="0.56"/><stop offset="0.72" stop-color="#0074e1" stop-opacity="0.8"/><stop offset="0.9" stop-color="#0074e1" stop-opacity="0.94"/><stop offset="1" stop-color="#0074e1"/></linearGradient></defs><title>资源 1</title><g id="图层_2" data-name="图层 2"><g id="图层_1-2" data-name="图层 1"><polygon points="37.08 35.76 58.3 23.47 58.01 48.98 36.8 60.6 37.08 35.76" style="fill:url(#未命名的渐变_2)"/><path d="M35.44,35.18V62.57l24-13.84V21.51ZM55.49,46.42,39.6,55.56v-18l15.89-9Z"/><path d="M53.41,16.4,58,13.8,34.62.12A.86.86,0,0,0,34.18,0a.87.87,0,0,0-.45.12L6.81,15.84a.19.19,0,0,0-.1.17V47.68a.21.21,0,0,0,.1.18l22,12.64V55.21L11.3,45.15V18.53L34.18,5.17Z"/><polygon points="49 92.33 48.99 82.85 39.29 82.86 39.29 79.1 48.96 79.1 48.95 76.28 35.88 76.29 35.89 85.77 45.6 85.76 45.6 89.52 35.9 89.52 35.91 92.33 49 92.33"/><path d="M18.8,92.33H33.14v-16H18.8Zm3.4-13.26h7.53v10.5H22.2Z"/><path d="M66.19,92.33V76.41H51.85V92.33m3.4,0V79.72h7.54V92.33"/><polygon points="15.66 92.3 15.63 76.24 12.48 76.27 7.83 80.84 3.18 76.27 0 76.27 0.03 92.33 2.99 92.3 2.97 80.14 7.83 84.92 12.69 80.14 12.69 92.33 15.66 92.3"/></g></g></svg>