<svg xmlns="http://www.w3.org/2000/svg" xmlns:xlink="http://www.w3.org/1999/xlink" viewBox="0 0 66.19 92.33"><defs><linearGradient id="未命名的渐变_32" x1="64.87" y1="35.83" x2="27.59" y2="49.3" gradientUnits="userSpaceOnUse"><stop offset="0" stop-color="#fff" stop-opacity="0"/><stop offset="1" stop-color="#fff"/></linearGradient></defs><title>资源 4</title><g id="图层_2" data-name="图层 2"><g id="图层_1-2" data-name="图层 1"><polygon points="37.23 35.76 58.44 23.47 58.16 48.98 36.95 60.6 37.23 35.76" style="fill:url(#未命名的渐变_32)"/><path d="M35.58,35.18V62.57L59.63,48.73V21.51ZM55.63,46.42,39.74,55.56v-18l15.89-9Z" style="fill:#fff"/><path d="M53.55,16.4l4.63-2.6L34.77.12A.87.87,0,0,0,34.32,0a.92.92,0,0,0-.45.12L7,15.84a.21.21,0,0,0-.1.17l0,31.67a.21.21,0,0,0,.1.18L29,60.5V55.21L11.45,45.15V18.53L34.32,5.17Z" style="fill:#fff"/><polygon points="49 92.33 48.99 82.85 39.29 82.86 39.29 79.1 48.96 79.1 48.95 76.28 35.88 76.29 35.89 85.77 45.6 85.76 45.6 89.52 35.9 89.52 35.91 92.33 49 92.33" style="fill:#fff"/><path d="M18.8,92.33H33.14v-16H18.8Zm3.4-13.26h7.53v10.5H22.2Z" style="fill:#fff"/><path d="M66.19,92.33V76.41H51.85V92.33m3.4,0V79.72h7.54V92.33" style="fill:#fff"/><polygon points="15.66 92.3 15.63 76.24 12.48 76.27 7.83 80.84 3.18 76.27 0 76.27 0.03 92.33 2.99 92.3 2.97 80.14 7.83 84.92 12.69 80.14 12.69 92.33 15.66 92.3" style="fill:#fff"/></g></g></svg>