<svg xmlns="http://www.w3.org/2000/svg" xmlns:xlink="http://www.w3.org/1999/xlink" viewBox="0 0 133.14 62.57"><defs><linearGradient id="未命名的渐变_32" x1="58.02" y1="35.83" x2="20.74" y2="49.3" gradientUnits="userSpaceOnUse"><stop offset="0" stop-color="#fff" stop-opacity="0"/><stop offset="1" stop-color="#fff"/></linearGradient></defs><title>资源 3</title><g id="图层_2" data-name="图层 2"><g id="图层_1-2" data-name="图层 1"><polygon points="30.37 35.76 51.59 23.47 51.3 48.98 30.09 60.6 30.37 35.76" style="fill:url(#未命名的渐变_32)"/><path d="M28.73,35.18V62.57l24-13.84V21.51ZM48.78,46.42,32.89,55.56v-18l15.89-9Z" style="fill:#fff"/><path d="M46.7,16.4l4.62-2.6L27.92.12a.9.9,0,0,0-.9,0L.1,15.84A.21.21,0,0,0,0,16V47.68a.21.21,0,0,0,.1.18l22,12.64V55.21L4.6,45.15l0-26.62L27.47,5.17Z" style="fill:#fff"/><polygon points="115.95 41.33 115.94 31.85 106.23 31.86 106.23 28.1 115.91 28.1 115.9 25.28 102.83 25.29 102.84 34.77 112.54 34.76 112.54 38.52 102.85 38.52 102.86 41.33 115.95 41.33" style="fill:#fff"/><path d="M85.75,41.33h14.33v-16H85.75Zm3.39-13.26h7.54v10.5H89.14Z" style="fill:#fff"/><path d="M133.14,41.33V25.41H118.8V41.33m3.39,0V28.72h7.54V41.33" style="fill:#fff"/><polygon points="82.6 41.3 82.58 25.24 79.42 25.27 74.77 29.84 70.13 25.27 66.94 25.27 66.97 41.33 69.94 41.3 69.91 29.14 74.77 33.92 79.64 29.14 79.64 41.33 82.6 41.3" style="fill:#fff"/></g></g></svg>